<?xml version="1.0" encoding="utf-8" ?><svg xmlns="http://www.w3.org/2000/svg" xmlns:xlink="http://www.w3.org/1999/xlink" width="1024" height="1024" viewBox="0 0 1024 1024"><path d="M651.594 390.536C653.686 390.656 654.73 390.962 655.932 392.748C656.311 401.079 623.196 473.867 616.99 487.884L584.053 563.22L561.012 616.273C556.562 626.643 552.495 637.476 547.311 647.495C546.256 649.533 544.014 653.92 541.625 654.384C534.732 655.725 492.508 623.235 484.134 617.15C473.862 623.118 464.13 631.869 454.25 638.466C448.669 642.193 433.113 655.722 427.449 655.091C424.477 652.691 415.754 610.786 413.946 603.614C411.222 590.344 406.701 572.202 403.169 559.138C386.134 549.197 369.254 538.991 352.535 528.525C346.209 524.587 325.128 511.449 320.718 506.434C320.564 503.079 331.286 499.528 334.177 498.561C357.739 490.675 381.378 482.98 404.862 474.862L546.025 425.664L615.258 402.524C623.911 399.623 643.662 392.306 651.594 390.536ZM454.085 584.714C465.668 593.408 478.199 600.923 489.234 609.204C505.807 620.232 521.99 631.78 538.504 642.773C548.951 617.593 643.175 408.818 642.61 406.497L555.1 489.039C522.25 519.665 485.445 553.019 454.085 584.714ZM339.171 508.497C347.672 514.281 358.382 519.396 366.269 524.863C380.208 533.072 393.674 541.587 407.785 549.546C426.485 536.999 446.548 524.765 465.531 512.513L569.623 445.179L609.821 419.471C612.34 417.857 624.631 410.18 626.098 408.677L625.349 408.548C608.099 413.687 588.704 420.897 571.486 426.691C530.681 440.306 490.011 454.324 449.483 468.745L380.204 493.346C367.855 497.743 350.947 503.305 339.171 508.497Z"/><path d="M644.022 460.751C646.418 463.353 652.378 474.765 654.476 478.608L678.351 523.074L703.786 569.832C714.594 589.654 724.738 605.33 725.586 628.975C726.556 651.509 718.325 673.47 702.784 689.816C689.892 703.467 666.868 714.9 648.071 715.555C636.118 716.7 624.068 714.866 612.997 710.217C591.887 701.205 584.663 685.393 576.173 665.748C572.643 657.69 569.219 649.585 565.901 641.437L619.743 517.284C627.229 500.038 635.801 477.098 644.022 460.751Z"/><path d="M503.303 308.696C515.976 307.515 531.265 309.605 543.199 313.83C568.905 322.93 578.209 341.156 590.228 363.738C594.962 372.631 600.545 381.824 604.8 391.022L453.113 443.49C427.592 452.783 401.829 461.399 375.851 469.329L422.764 383.927L436.708 358.404C441.414 349.749 444.479 343.116 450.669 335.287C464.253 318.106 482.218 311.245 503.303 308.696Z"/><path d="M339.061 535.728C345.543 537.191 384.692 561.877 391.952 566.539C397.144 585.438 400.72 604.812 405.481 623.983C408.726 637.052 411.014 661.34 425.535 666.467C433.001 669.103 443.277 662.51 449.891 658.91C441.195 681.625 433.855 698.736 411.122 709.986C389.712 719.648 364.312 717.039 343.782 706.393C323.614 696.126 308.483 678.105 301.861 656.465C291.401 622.485 303.738 598.78 319.839 570.41C326.377 558.923 332.785 547.361 339.061 535.728Z"/></svg>